<svg viewBox="0 0 680.3 317.5" xmlns="http://www.w3.org/2000/svg" xmlns:xlink="http://www.w3.org/1999/xlink" id="Layer_1" overflow="hidden"><defs></defs><rect x="0" y="0" width="680.3" height="317.5" stroke-width="0" fill="#FFFFFF"/><rect x="8.5" y="8.5" rx="5.7" ry="5.7" width="663.3" height="300.5" stroke="#D5DAE2" stroke-width="1.4" stroke-miterlimit="11.3" fill="none"/><text fill="#1D3660" font-family="Arial-BoldMT,Arial" font-weight="700" font-size="20.4" letter-spacing="0em" transform="translate(39.7 43.7)"><tspan x="0" y="0">Your Course at a Glance</tspan></text><text fill="#5C6470" font-family="ArialMT,Arial" font-size="9.9" transform="translate(39.7 59.8)"><tspan x="0" y="0">The numbers that matter — quick reference</tspan></text><line x1="39.7" y1="68.6" x2="640.6" y2="68.6" stroke="#1D3660" stroke-width="1.1" stroke-miterlimit="11.3" fill="none"/><line x1="39.7" y1="68.6" x2="113.4" y2="68.6" stroke="#9C3B45" stroke-width="3.7" stroke-miterlimit="11.3" fill="none"/><rect x="39.7" y="93.5" rx="4.5" ry="4.5" width="137.5" height="96.4" stroke="#1D3660" stroke-width="1.4" stroke-miterlimit="11.3" fill="#FFFFFF"/><path d="M44.2 93.5 172.6 93.5C175.1 93.5 177.1 95.4 177.1 97.8L177.1 97.8C177.1 100.1 175.1 102.1 172.6 102.1L44.2 102.1C41.7 102.1 39.7 100.2 39.7 97.8L39.7 97.8C39.7 95.5 41.7 93.5 44.2 93.5Z" stroke-width="0" fill="#1D3660"/><text fill="#1D3660" font-family="Arial-BoldMT,Arial" font-weight="700" font-size="24.4" transform="translate(101.6 137.5)"><tspan x="0" y="0">5</tspan></text><text fill="#5C6470" font-family="Arial-BoldMT,Arial" font-weight="700" font-size="6.8" transform="translate(87.3 154.5)"><tspan x="0" y="0">training days</tspan></text><rect x="194.2" y="93.5" rx="4.5" ry="4.5" width="137.5" height="96.4" stroke="#4F6E9B" stroke-width="1.4" stroke-miterlimit="11.3" fill="#FFFFFF"/><path d="M198.7 93.5 327.1 93.5C329.6 93.5 331.6 95.4 331.6 97.8L331.6 97.8C331.6 100.1 329.6 102.1 327.1 102.1L198.7 102.1C196.2 102.1 194.2 100.2 194.2 97.8L194.2 97.8C194.2 95.5 196.2 93.5 198.7 93.5Z" stroke-width="0" fill="#4F6E9B"/><text fill="#4F6E9B" font-family="Arial-BoldMT,Arial" font-weight="700" font-size="24.4" transform="translate(242.7 137.5)"><tspan x="0" y="0">≤10</tspan></text><text fill="#5C6470" font-family="Arial-BoldMT,Arial" font-weight="700" font-size="6.8" transform="translate(237 154.5)"><tspan x="0" y="0">working days to</tspan></text><text fill="#5C6470" font-family="Arial-BoldMT,Arial" font-weight="700" font-size="6.8" transform="translate(248.2 163.6)"><tspan x="0" y="0">the exam</tspan></text><rect x="348.7" y="93.5" rx="4.5" ry="4.5" width="137.5" height="96.4" stroke="#4E8A8A" stroke-width="1.4" stroke-miterlimit="11.3" fill="#FFFFFF"/><path d="M353.2 93.5 481.6 93.5C484.1 93.5 486.1 95.4 486.1 97.8L486.1 97.8C486.1 100.1 484.1 102.1 481.6 102.1L353.2 102.1C350.7 102.1 348.7 100.2 348.7 97.8L348.7 97.8C348.7 95.5 350.7 93.5 353.2 93.5Z" stroke-width="0" fill="#4E8A8A"/><text fill="#4E8A8A" font-family="Arial-BoldMT,Arial" font-weight="700" font-size="24.4" transform="translate(397.1 137.5)"><tspan x="0" y="0">100</tspan></text><text fill="#5C6470" font-family="Arial-BoldMT,Arial" font-weight="700" font-size="6.8" transform="translate(389.8 154.5)"><tspan x="0" y="0">exam questions /</tspan></text><text fill="#5C6470" font-family="Arial-BoldMT,Arial" font-weight="700" font-size="6.8" transform="translate(404.7 163.6)"><tspan x="0" y="0">120 min</tspan></text><rect x="503.1" y="93.5" rx="4.5" ry="4.5" width="137.5" height="96.4" stroke="#5E8C61" stroke-width="1.4" stroke-miterlimit="11.3" fill="#FFFFFF"/><path d="M507.7 93.5 636.1 93.5C638.6 93.5 640.6 95.4 640.6 97.8L640.6 97.8C640.6 100.1 638.6 102.1 636.1 102.1L507.7 102.1C505.2 102.1 503.2 100.2 503.2 97.8L503.2 97.8C503.2 95.5 505.2 93.5 507.7 93.5Z" stroke-width="0" fill="#5E8C61"/><text fill="#5E8C61" font-family="Arial-BoldMT,Arial" font-weight="700" font-size="24.4" transform="translate(547.5 137.5)"><tspan x="0" y="0">70%</tspan></text><text fill="#5C6470" font-family="Arial-BoldMT,Arial" font-weight="700" font-size="6.8" transform="translate(549 154.5)"><tspan x="0" y="0">passing score</tspan></text><rect x="39.7" y="209.8" rx="4.5" ry="4.5" width="137.5" height="96.4" stroke="#33496E" stroke-width="1.4" stroke-miterlimit="11.3" fill="#FFFFFF"/><path d="M44.2 209.8 172.6 209.8C175.1 209.8 177.1 211.7 177.1 214.1L177.1 214.1C177.1 216.4 175.1 218.4 172.6 218.4L44.2 218.4C41.7 218.4 39.7 216.5 39.7 214.1L39.7 214.1C39.7 211.8 41.7 209.8 44.2 209.8Z" stroke-width="0" fill="#33496E"/><text fill="#33496E" font-family="Arial-BoldMT,Arial" font-weight="700" font-size="24.4" transform="translate(88.2 253.7)"><tspan x="0" y="0">≤14</tspan></text><text fill="#5C6470" font-family="Arial-BoldMT,Arial" font-weight="700" font-size="6.8" transform="translate(82.5 270.7)"><tspan x="0" y="0">working days to</tspan></text><text fill="#5C6470" font-family="Arial-BoldMT,Arial" font-weight="700" font-size="6.8" transform="translate(86.3 279.8)"><tspan x="0" y="0">the certificate</tspan></text><rect x="194.2" y="209.8" rx="4.5" ry="4.5" width="137.5" height="96.4" stroke="#7E6BA0" stroke-width="1.4" stroke-miterlimit="11.3" fill="#FFFFFF"/><path d="M198.7 209.8 327.1 209.8C329.6 209.8 331.6 211.7 331.6 214.1L331.6 214.1C331.6 216.4 329.6 218.4 327.1 218.4L198.7 218.4C196.2 218.4 194.2 216.5 194.2 214.1L194.2 214.1C194.2 211.8 196.2 209.8 198.7 209.8Z" stroke-width="0" fill="#7E6BA0"/><text fill="#7E6BA0" font-family="Arial-BoldMT,Arial" font-weight="700" font-size="24.4" transform="translate(234.4 253.7)"><tspan x="0" y="0">3 yrs</tspan></text><text fill="#5C6470" font-family="Arial-BoldMT,Arial" font-weight="700" font-size="6.8" transform="translate(246.8 270.7)"><tspan x="0" y="0">certificate</tspan></text><text fill="#5C6470" font-family="Arial-BoldMT,Arial" font-weight="700" font-size="6.8" transform="translate(251.2 279.8)"><tspan x="0" y="0">validity</tspan></text><rect x="348.7" y="209.8" rx="4.5" ry="4.5" width="137.5" height="96.4" stroke="#9C7A12" stroke-width="1.4" stroke-miterlimit="11.3" fill="#FFFFFF"/><path d="M353.2 209.8 481.6 209.8C484.1 209.8 486.1 211.7 486.1 214.1L486.1 214.1C486.1 216.4 484.1 218.4 481.6 218.4L353.2 218.4C350.7 218.4 348.7 216.5 348.7 214.1L348.7 214.1C348.7 211.8 350.7 209.8 353.2 209.8Z" stroke-width="0" fill="#9C7A12"/><text fill="#9C7A12" font-family="Arial-BoldMT,Arial" font-weight="700" font-size="24.4" transform="translate(410.6 253.7)"><tspan x="0" y="0">1</tspan></text><text fill="#5C6470" font-family="Arial-BoldMT,Arial" font-weight="700" font-size="6.8" transform="translate(390.7 270.7)"><tspan x="0" y="0">free retake (after</tspan></text><text fill="#5C6470" font-family="Arial-BoldMT,Arial" font-weight="700" font-size="6.8" transform="translate(403.8 279.8)"><tspan x="0" y="0">14 days)</tspan></text><rect x="503.1" y="209.8" rx="4.5" ry="4.5" width="137.5" height="96.4" stroke="#7E2D36" stroke-width="1.4" stroke-miterlimit="11.3" fill="#FFFFFF"/><path d="M507.7 209.8 636.1 209.8C638.6 209.8 640.6 211.7 640.6 214.1L640.6 214.1C640.6 216.4 638.6 218.4 636.1 218.4L507.7 218.4C505.2 218.4 503.2 216.5 503.2 214.1L503.2 214.1C503.2 211.8 505.2 209.8 507.7 209.8Z" stroke-width="0" fill="#7E2D36"/><text fill="#7E2D36" font-family="Arial-BoldMT,Arial" font-weight="700" font-size="24.4" transform="translate(565.1 253.7)"><tspan x="0" y="0">3</tspan></text><text fill="#5C6470" font-family="Arial-BoldMT,Arial" font-weight="700" font-size="6.8" transform="translate(547.1 270.7)"><tspan x="0" y="0">delivery modes</tspan></text></svg>