<svg viewBox="0 0 680.3 334.5" xmlns="http://www.w3.org/2000/svg" xmlns:xlink="http://www.w3.org/1999/xlink" id="Layer_1" overflow="hidden"><defs></defs><rect x="-0.8" y="0" width="680.3" height="334.5" stroke-width="0" fill="#FFFFFF"/><rect x="7.7" y="1.6" rx="5.7" ry="5.7" width="663.3" height="317.5" stroke="#D5DAE2" stroke-width="1.4" stroke-miterlimit="11.3" fill="none"/><text fill="#1D3660" font-family="Arial-BoldMT,Arial" font-weight="700" font-size="20.4" letter-spacing="0em" transform="translate(39.7 43.7)"><tspan x="0" y="0">The Examination at a Glance</tspan></text><text fill="#5C6470" font-family="ArialMT,Arial" font-size="9.9" transform="translate(39.7 59.8)"><tspan x="0" y="0">The key facts of the ISO 9001:2015 Lead Auditor examination, in one view</tspan></text><line x1="39.7" y1="68.6" x2="640.6" y2="68.6" stroke="#1D3660" stroke-width="1.1" stroke-miterlimit="11.3" fill="none"/><line x1="39.7" y1="68.6" x2="113.4" y2="68.6" stroke="#9C3B45" stroke-width="3.7" stroke-miterlimit="11.3" fill="none"/><rect x="36.5" y="80.7" rx="5.1" ry="5.1" width="137.5" height="104.9" stroke="#1D3660" stroke-width="1.6" stroke-miterlimit="11.3" fill="#FFFFFF"/><rect x="36.5" y="80.7" rx="2.8" ry="2.8" width="137.5" height="6.2" stroke-width="0" fill="#1D3660"/><text fill="#1D3660" font-family="Arial-BoldMT,Arial" font-weight="700" font-size="31.2" transform="translate(79.2 119)"><tspan x="0" y="0">100</tspan></text><text fill="#232B36" font-family="Arial-BoldMT,Arial" font-weight="700" font-size="8.5" letter-spacing="0em" transform="translate(82.6 133.4)"><tspan x="0" y="0">questions</tspan></text><text fill="#5C6470" font-family="ArialMT,Arial" font-size="6.7" transform="translate(77.5 149.3)"><tspan x="0" y="0">drawn from a large</tspan></text><text fill="#5C6470" font-family="ArialMT,Arial" font-size="6.7" transform="translate(78.9 159)"><tspan x="0" y="0">international bank</tspan></text><rect x="191" y="80.7" rx="5.1" ry="5.1" width="137.5" height="104.9" stroke="#4F6E9B" stroke-width="1.6" stroke-miterlimit="11.3" fill="#FFFFFF"/><rect x="191" y="80.7" rx="2.8" ry="2.8" width="137.5" height="6.2" stroke-width="0" fill="#4F6E9B"/><text fill="#4F6E9B" font-family="Arial-BoldMT,Arial" font-weight="700" font-size="31.2" transform="translate(233.7 119)"><tspan x="0" y="0">120</tspan></text><text fill="#232B36" font-family="Arial-BoldMT,Arial" font-weight="700" font-size="8.5" letter-spacing="0em" transform="translate(241.4 133.4)"><tspan x="0" y="0">minutes</tspan></text><text fill="#5C6470" font-family="ArialMT,Arial" font-size="6.7" transform="translate(229.5 149.3)"><tspan x="0" y="0">a single timed sitting</tspan></text><rect x="345.5" y="80.7" rx="5.1" ry="5.1" width="137.5" height="104.9" stroke="#5E8C61" stroke-width="1.6" stroke-miterlimit="11.3" fill="#FFFFFF"/><rect x="345.5" y="80.7" rx="2.8" ry="2.8" width="137.5" height="6.2" stroke-width="0" fill="#5E8C61"/><text fill="#5E8C61" font-family="Arial-BoldMT,Arial" font-weight="700" font-size="31.2" transform="translate(383 119)"><tspan x="0" y="0">70%</tspan></text><text fill="#232B36" font-family="Arial-BoldMT,Arial" font-weight="700" font-size="8.5" letter-spacing="0em" transform="translate(397.3 133.4)"><tspan x="0" y="0">to pass</tspan></text><text fill="#5C6470" font-family="ArialMT,Arial" font-size="6.7" transform="translate(378 149.3)"><tspan x="0" y="0">Pass mark set in Takeed</tspan></text><text fill="#5C6470" font-family="ArialMT,Arial" font-size="6.7" transform="translate(397.9 159)"><tspan x="0" y="0">regulations</tspan></text><rect x="500" y="80.7" rx="5.1" ry="5.1" width="137.5" height="104.9" stroke="#4E8A8A" stroke-width="1.6" stroke-miterlimit="11.3" fill="#FFFFFF"/><rect x="500" y="80.7" rx="2.8" ry="2.8" width="137.5" height="6.2" stroke-width="0" fill="#4E8A8A"/><text fill="#4E8A8A" font-family="Arial-BoldMT,Arial" font-weight="700" font-size="31.2" transform="translate(542.8 119)"><tspan x="0" y="0">≤10</tspan></text><text fill="#232B36" font-family="Arial-BoldMT,Arial" font-weight="700" font-size="8.5" letter-spacing="0em" transform="translate(538.1 133.4)"><tspan x="0" y="0">working days</tspan></text><text fill="#5C6470" font-family="ArialMT,Arial" font-size="6.7" transform="translate(535.9 149.3)"><tspan x="0" y="0">exam sat after the last</tspan></text><text fill="#5C6470" font-family="ArialMT,Arial" font-size="6.7" transform="translate(551.5 159)"><tspan x="0" y="0">training day</tspan></text><rect x="38.9" y="194.7" rx="5.1" ry="5.1" width="137.5" height="104.9" stroke="#9C7A12" stroke-width="1.6" stroke-miterlimit="11.3" fill="#FFFFFF"/><rect x="38.9" y="194.7" rx="2.8" ry="2.8" width="137.5" height="6.2" stroke-width="0" fill="#9C7A12"/><text fill="#9C7A12" font-family="Arial-BoldMT,Arial" font-weight="700" font-size="31.2" transform="translate(81.7 233)"><tspan x="0" y="0">≤14</tspan></text><text fill="#232B36" font-family="Arial-BoldMT,Arial" font-weight="700" font-size="8.5" letter-spacing="0em" transform="translate(77.1 247.5)"><tspan x="0" y="0">working days</tspan></text><text fill="#5C6470" font-family="ArialMT,Arial" font-size="6.7" transform="translate(75.2 263.3)"><tspan x="0" y="0">certificate issued after</tspan></text><text fill="#5C6470" font-family="ArialMT,Arial" font-size="6.7" transform="translate(93.9 273)"><tspan x="0" y="0">the exam</tspan></text><rect x="193.4" y="194.7" rx="5.1" ry="5.1" width="137.5" height="104.9" stroke="#7E6BA0" stroke-width="1.6" stroke-miterlimit="11.3" fill="#FFFFFF"/><rect x="193.4" y="194.7" rx="2.8" ry="2.8" width="137.5" height="6.2" stroke-width="0" fill="#7E6BA0"/><text fill="#7E6BA0" font-family="Arial-BoldMT,Arial" font-weight="700" font-size="31.2" transform="translate(253.5 233)"><tspan x="0" y="0">6</tspan></text><text fill="#232B36" font-family="Arial-BoldMT,Arial" font-weight="700" font-size="8.5" letter-spacing="0em" transform="translate(248.9 247.5)"><tspan x="0" y="0">hours</tspan></text><text fill="#5C6470" font-family="ArialMT,Arial" font-size="6.7" transform="translate(228.8 263.3)"><tspan x="0" y="0">the personal exam link</tspan></text><text fill="#5C6470" font-family="ArialMT,Arial" font-size="6.7" transform="translate(246.6 273)"><tspan x="0" y="0">stays valid</tspan></text><rect x="347.9" y="194.7" rx="5.1" ry="5.1" width="137.5" height="104.9" stroke="#7E2D36" stroke-width="1.6" stroke-miterlimit="11.3" fill="#FFFFFF"/><rect x="347.9" y="194.7" rx="2.8" ry="2.8" width="137.5" height="6.2" stroke-width="0" fill="#7E2D36"/><text fill="#7E2D36" font-family="Arial-BoldMT,Arial" font-weight="700" font-size="31.2" transform="translate(407.9 233)"><tspan x="0" y="0">1</tspan></text><text fill="#232B36" font-family="Arial-BoldMT,Arial" font-weight="700" font-size="8.5" letter-spacing="0em" transform="translate(392 247.5)"><tspan x="0" y="0">free retake</tspan></text><text fill="#5C6470" font-family="ArialMT,Arial" font-size="6.7" transform="translate(383.3 263.3)"><tspan x="0" y="0">available 14 days after</tspan></text><text fill="#5C6470" font-family="ArialMT,Arial" font-size="6.7" transform="translate(400 273)"><tspan x="0" y="0">the attempt</tspan></text><rect x="502.4" y="194.7" rx="5.1" ry="5.1" width="137.5" height="104.9" stroke="#45566F" stroke-width="1.6" stroke-miterlimit="11.3" fill="#FFFFFF"/><rect x="502.4" y="194.7" rx="2.8" ry="2.8" width="137.5" height="6.2" stroke-width="0" fill="#45566F"/><text fill="#45566F" font-family="Arial-BoldMT,Arial" font-weight="700" font-size="31.2" transform="translate(562.4 233)"><tspan x="0" y="0">3</tspan></text><text fill="#232B36" font-family="Arial-BoldMT,Arial" font-weight="700" font-size="8.5" letter-spacing="0em" transform="translate(558.6 247.5)"><tspan x="0" y="0">years</tspan></text><text fill="#5C6470" font-family="ArialMT,Arial" font-size="6.7" transform="translate(545.7 263.3)"><tspan x="0" y="0">certificate validity</tspan></text><text fill="#5C6470" font-family="ArialMT,Arial" font-size="6.7" transform="translate(538.2 273)"><tspan x="0" y="0">(per certification body)</tspan></text><text fill="#1D3660" font-family="Arial-BoldMT,Arial" font-weight="700" font-size="7.7" transform="translate(105.2 312.7)"><tspan x="0" y="0">Question types: multiple choice, true / false and matching · Platform: the Takeed examination platform (ClassMarker) · Proctored.</tspan></text></svg>