<svg xmlns="http://www.w3.org/2000/svg" width="1200" height="675" viewBox="0 0 1200 675" role="img">
  <defs>
    <style><![CDATA[
      .title{font-family:Inter,Arial,sans-serif;font-size:36px;font-weight:800;fill:#092B45;letter-spacing:.3px}
      .subtitle{font-family:Inter,Arial,sans-serif;font-size:16px;fill:#6B7785}
      .label{font-family:Inter,Arial,sans-serif;font-size:15px;fill:#1A2A3A}
      .small{font-family:Inter,Arial,sans-serif;font-size:12px;fill:#6B7785}
      .head{font-family:Inter,Arial,sans-serif;font-size:17px;font-weight:800;fill:white;letter-spacing:.8px}
      .boxTitle{font-family:Inter,Arial,sans-serif;font-size:18px;font-weight:800;fill:#092B45}
      .boxText{font-family:Inter,Arial,sans-serif;font-size:13px;fill:#1A2A3A}
      .num{font-family:Georgia,serif;font-size:28px;font-weight:700;fill:white}
    ]]></style>
    <filter id="shadow" x="-20%" y="-20%" width="140%" height="140%"><feDropShadow dx="0" dy="2" stdDeviation="3" flood-color="#0B1B2B" flood-opacity="0.16"/></filter>
    <linearGradient id="cover" x1="0" x2="1" y1="0" y2="1"><stop stop-color="#092B45" offset="0"/><stop stop-color="#123C5D" offset="0.6"/><stop stop-color="#0B2F4C" offset="1"/></linearGradient>
    <linearGradient id="grad" x1="0" x2="1" y1="0" y2="1"><stop stop-color="#8E4D9F" offset="0"/><stop stop-color="#0E8C87" offset="1"/></linearGradient>
  </defs>
<rect width="1200" height="675" fill="url(#cover)"/>
<text x="92" y="88" font-family="Inter,Arial" font-size="30" font-weight="800" fill="white">takeed</text>
<text x="92" y="112" font-family="Inter,Arial" font-size="12" letter-spacing="2" fill="#D6E6EF">WE ASSURE</text>
<line x1="92" y1="148" x2="1080" y2="148" stroke="#42627A" stroke-width="2"/><line x1="92" y1="148" x2="210" y2="148" stroke="#D9485A" stroke-width="8"/>
<text x="92" y="252" font-family="Inter,Arial" font-size="18" letter-spacing="4" fill="#D6E6EF">WORKSHOP &amp; EXERCISES COMPANION</text>
<text x="92" y="324" font-family="Georgia,serif" font-size="52" font-weight="700" fill="white">ISO 9001:2015 Lead Auditor</text>
<text x="92" y="366" font-family="Inter,Arial" font-size="24" fill="#D6E6EF">Workshop &amp; Case-Study Book</text>
<text x="92" y="430" font-family="Inter,Arial" font-size="20" fill="#F6EFCF">Aligned with The Blue Book · NileTrust Financial running case</text>
<line x1="92" y1="590" x2="1080" y2="590" stroke="#42627A" stroke-width="2"/><line x1="92" y1="590" x2="210" y2="590" stroke="#D9485A" stroke-width="8"/>
<text x="92" y="630" font-family="Inter,Arial" font-size="16" letter-spacing="2" fill="#D6E6EF">Takeed Academy · 9001-LA-WB · V.01 · 2026</text>
<path d="M1048 592 C1070 562 1086 535 1105 494 C1094 552 1076 601 1049 625 C1035 611 1023 596 1008 580 C1023 586 1035 591 1048 592Z" fill="white"/>
</svg>