<svg xmlns="http://www.w3.org/2000/svg" width="1200" height="675" viewBox="0 0 1200 675" role="img">
  <defs>
    <style><![CDATA[
      .title{font-family:Inter,Arial,sans-serif;font-size:36px;font-weight:800;fill:#092B45;letter-spacing:.3px}
      .subtitle{font-family:Inter,Arial,sans-serif;font-size:16px;fill:#6B7785}
      .label{font-family:Inter,Arial,sans-serif;font-size:15px;fill:#1A2A3A}
      .small{font-family:Inter,Arial,sans-serif;font-size:12px;fill:#6B7785}
      .head{font-family:Inter,Arial,sans-serif;font-size:17px;font-weight:800;fill:white;letter-spacing:.8px}
      .boxTitle{font-family:Inter,Arial,sans-serif;font-size:18px;font-weight:800;fill:#092B45}
      .boxText{font-family:Inter,Arial,sans-serif;font-size:13px;fill:#1A2A3A}
      .num{font-family:Georgia,serif;font-size:28px;font-weight:700;fill:white}
    ]]></style>
    <filter id="shadow" x="-20%" y="-20%" width="140%" height="140%"><feDropShadow dx="0" dy="2" stdDeviation="3" flood-color="#0B1B2B" flood-opacity="0.16"/></filter>
    <linearGradient id="cover" x1="0" x2="1" y1="0" y2="1"><stop stop-color="#092B45" offset="0"/><stop stop-color="#123C5D" offset="0.6"/><stop stop-color="#0B2F4C" offset="1"/></linearGradient>
    <linearGradient id="grad" x1="0" x2="1" y1="0" y2="1"><stop stop-color="#8E4D9F" offset="0"/><stop stop-color="#0E8C87" offset="1"/></linearGradient>
  </defs>
<rect x="30" y="30" width="1140" height="610" rx="18" fill="white" stroke="#D7DDE5" filter="url(#shadow)"/><text x="70" y="88" class="title" text-anchor="start">Interested parties for the QMS</text><text x="70" y="118" class="subtitle" text-anchor="start">Identify relevant needs and expectations that become QMS requirements.</text><circle cx="600" cy="345" r="85" fill="#092B45"/><text x="600" y="335" class="head" text-anchor="middle">NileTrust</text><text x="600" y="360" class="head" text-anchor="middle">QMS</text><line x1="600" y1="345" x2="600.0" y2="135.0" stroke="#CAD2DC" stroke-width="2"/><rect x="505.0" y="90.0" width="190" height="90" rx="12" fill="#F8FAFC" stroke="#D7DDE5" /><text x="600.0" y="130.0" class="boxTitle" text-anchor="middle">Customers</text><text x="600.0" y="157.0" class="small" text-anchor="middle">Quality, reliability</text><line x1="600" y1="345" x2="885.7883832488648" y2="240.0" stroke="#CAD2DC" stroke-width="2"/><rect x="790.7883832488648" y="195.0" width="190" height="90" rx="12" fill="#F8FAFC" stroke="#D7DDE5" /><text x="885.7883832488648" y="235.0" class="boxTitle" text-anchor="middle">Regulators</text><text x="885.7883832488648" y="262.0" class="small" text-anchor="middle">Compliance evidence</text><line x1="600" y1="345" x2="885.7883832488648" y2="450.0" stroke="#CAD2DC" stroke-width="2"/><rect x="790.7883832488648" y="405.0" width="190" height="90" rx="12" fill="#F8FAFC" stroke="#D7DDE5" /><text x="885.7883832488648" y="445.0" class="boxTitle" text-anchor="middle">Top management</text><text x="885.7883832488648" y="472.0" class="small" text-anchor="middle">Performance results</text><line x1="600" y1="345" x2="600.0" y2="555.0" stroke="#CAD2DC" stroke-width="2"/><rect x="505.0" y="510.0" width="190" height="90" rx="12" fill="#F8FAFC" stroke="#D7DDE5" /><text x="600.0" y="550.0" class="boxTitle" text-anchor="middle">Suppliers</text><text x="600.0" y="577.0" class="small" text-anchor="middle">Clear requirements</text><line x1="600" y1="345" x2="314.21161675113524" y2="450.0" stroke="#CAD2DC" stroke-width="2"/><rect x="219.21161675113524" y="405.0" width="190" height="90" rx="12" fill="#F8FAFC" stroke="#D7DDE5" /><text x="314.21161675113524" y="445.0" class="boxTitle" text-anchor="middle">Employees</text><text x="314.21161675113524" y="472.0" class="small" text-anchor="middle">Competence and roles</text><line x1="600" y1="345" x2="314.21161675113524" y2="239.99999999999997" stroke="#CAD2DC" stroke-width="2"/><rect x="219.21161675113524" y="194.99999999999997" width="190" height="90" rx="12" fill="#F8FAFC" stroke="#D7DDE5" /><text x="314.21161675113524" y="234.99999999999997" class="boxTitle" text-anchor="middle">Certification body</text><text x="314.21161675113524" y="262.0" class="small" text-anchor="middle">Audit evidence</text>
</svg>