<svg xmlns="http://www.w3.org/2000/svg" width="1200" height="675" viewBox="0 0 1200 675" role="img">
  <defs>
    <style><![CDATA[
      .title{font-family:Inter,Arial,sans-serif;font-size:36px;font-weight:800;fill:#092B45;letter-spacing:.3px}
      .subtitle{font-family:Inter,Arial,sans-serif;font-size:16px;fill:#6B7785}
      .label{font-family:Inter,Arial,sans-serif;font-size:15px;fill:#1A2A3A}
      .small{font-family:Inter,Arial,sans-serif;font-size:12px;fill:#6B7785}
      .head{font-family:Inter,Arial,sans-serif;font-size:17px;font-weight:800;fill:white;letter-spacing:.8px}
      .boxTitle{font-family:Inter,Arial,sans-serif;font-size:18px;font-weight:800;fill:#092B45}
      .boxText{font-family:Inter,Arial,sans-serif;font-size:13px;fill:#1A2A3A}
      .num{font-family:Georgia,serif;font-size:28px;font-weight:700;fill:white}
    ]]></style>
    <filter id="shadow" x="-20%" y="-20%" width="140%" height="140%"><feDropShadow dx="0" dy="2" stdDeviation="3" flood-color="#0B1B2B" flood-opacity="0.16"/></filter>
    <linearGradient id="cover" x1="0" x2="1" y1="0" y2="1"><stop stop-color="#092B45" offset="0"/><stop stop-color="#123C5D" offset="0.6"/><stop stop-color="#0B2F4C" offset="1"/></linearGradient>
    <linearGradient id="grad" x1="0" x2="1" y1="0" y2="1"><stop stop-color="#8E4D9F" offset="0"/><stop stop-color="#0E8C87" offset="1"/></linearGradient>
  </defs>
<rect x="30" y="30" width="1140" height="610" rx="18" fill="white" stroke="#D7DDE5" filter="url(#shadow)"/><text x="70" y="88" class="title" text-anchor="start">Lead auditor workflow</text><text x="70" y="118" class="subtitle" text-anchor="start">A practical flow for planning, conducting, reporting and following up an ISO 9001 audit.</text><rect x="80" y="190" width="220" height="95" rx="12" fill="#F8FAFC" stroke="#D7DDE5" /><circle cx="116" cy="238" r="22" fill="#092B45"/><text x="116" y="246" class="head" text-anchor="middle">1</text><text x="152" y="243" class="boxTitle" text-anchor="start">Initiate audit</text><path d="M300 238 L340 238" stroke="#6B7785" stroke-width="3" marker-end="url(#arrow)"/><rect x="350" y="190" width="220" height="95" rx="12" fill="#F8FAFC" stroke="#D7DDE5" /><circle cx="386" cy="238" r="22" fill="#092B45"/><text x="386" y="246" class="head" text-anchor="middle">2</text><text x="422" y="243" class="boxTitle" text-anchor="start">Prepare plan</text><path d="M570 238 L610 238" stroke="#6B7785" stroke-width="3" marker-end="url(#arrow)"/><rect x="620" y="190" width="220" height="95" rx="12" fill="#F8FAFC" stroke="#D7DDE5" /><circle cx="656" cy="238" r="22" fill="#092B45"/><text x="656" y="246" class="head" text-anchor="middle">3</text><text x="692" y="243" class="boxTitle" text-anchor="start">Conduct opening meeting</text><path d="M840 238 L880 238" stroke="#6B7785" stroke-width="3" marker-end="url(#arrow)"/><rect x="890" y="190" width="220" height="95" rx="12" fill="#F8FAFC" stroke="#D7DDE5" /><circle cx="926" cy="238" r="22" fill="#092B45"/><text x="926" y="246" class="head" text-anchor="middle">4</text><text x="962" y="243" class="boxTitle" text-anchor="start">Collect evidence</text><rect x="80" y="380" width="220" height="95" rx="12" fill="#F8FAFC" stroke="#D7DDE5" /><circle cx="116" cy="428" r="22" fill="#A73A49"/><text x="116" y="436" class="head" text-anchor="middle">5</text><text x="152" y="433" class="boxTitle" text-anchor="start">Evaluate findings</text><path d="M300 428 L340 428" stroke="#6B7785" stroke-width="3" marker-end="url(#arrow)"/><rect x="350" y="380" width="220" height="95" rx="12" fill="#F8FAFC" stroke="#D7DDE5" /><circle cx="386" cy="428" r="22" fill="#A73A49"/><text x="386" y="436" class="head" text-anchor="middle">6</text><text x="422" y="433" class="boxTitle" text-anchor="start">Closing meeting</text><path d="M570 428 L610 428" stroke="#6B7785" stroke-width="3" marker-end="url(#arrow)"/><rect x="620" y="380" width="220" height="95" rx="12" fill="#F8FAFC" stroke="#D7DDE5" /><circle cx="656" cy="428" r="22" fill="#A73A49"/><text x="656" y="436" class="head" text-anchor="middle">7</text><text x="692" y="433" class="boxTitle" text-anchor="start">Issue report</text><path d="M840 428 L880 428" stroke="#6B7785" stroke-width="3" marker-end="url(#arrow)"/><rect x="890" y="380" width="220" height="95" rx="12" fill="#F8FAFC" stroke="#D7DDE5" /><circle cx="926" cy="428" r="22" fill="#A73A49"/><text x="926" y="436" class="head" text-anchor="middle">8</text><text x="962" y="433" class="boxTitle" text-anchor="start">Follow up</text>
</svg>