<svg xmlns="http://www.w3.org/2000/svg" width="1200" height="675" viewBox="0 0 1200 675" role="img">
  <defs>
    <style><![CDATA[
      .title{font-family:Inter,Arial,sans-serif;font-size:36px;font-weight:800;fill:#092B45;letter-spacing:.3px}
      .subtitle{font-family:Inter,Arial,sans-serif;font-size:16px;fill:#6B7785}
      .label{font-family:Inter,Arial,sans-serif;font-size:15px;fill:#1A2A3A}
      .small{font-family:Inter,Arial,sans-serif;font-size:12px;fill:#6B7785}
      .head{font-family:Inter,Arial,sans-serif;font-size:17px;font-weight:800;fill:white;letter-spacing:.8px}
      .boxTitle{font-family:Inter,Arial,sans-serif;font-size:18px;font-weight:800;fill:#092B45}
      .boxText{font-family:Inter,Arial,sans-serif;font-size:13px;fill:#1A2A3A}
      .num{font-family:Georgia,serif;font-size:28px;font-weight:700;fill:white}
    ]]></style>
    <filter id="shadow" x="-20%" y="-20%" width="140%" height="140%"><feDropShadow dx="0" dy="2" stdDeviation="3" flood-color="#0B1B2B" flood-opacity="0.16"/></filter>
    <linearGradient id="cover" x1="0" x2="1" y1="0" y2="1"><stop stop-color="#092B45" offset="0"/><stop stop-color="#123C5D" offset="0.6"/><stop stop-color="#0B2F4C" offset="1"/></linearGradient>
    <linearGradient id="grad" x1="0" x2="1" y1="0" y2="1"><stop stop-color="#8E4D9F" offset="0"/><stop stop-color="#0E8C87" offset="1"/></linearGradient>
  </defs>
<rect x="30" y="30" width="1140" height="610" rx="18" fill="white" stroke="#D7DDE5" filter="url(#shadow)"/><text x="70" y="88" class="title" text-anchor="start">Quality objectives and indicators</text><text x="70" y="118" class="subtitle" text-anchor="start">Convert policy and process risks into measurable, auditable objectives.</text><rect x="80" y="180" width="1040" height="70" rx="8" fill="#092B45" stroke="#092B45" /><text x="120" y="225" class="head" text-anchor="start">Objective</text><text x="325" y="225" class="head" text-anchor="start">Indicator</text><text x="530" y="225" class="head" text-anchor="start">Target</text><text x="735" y="225" class="head" text-anchor="start">Owner</text><text x="940" y="225" class="head" text-anchor="start">Review</text><rect x="80" y="250" width="1040" height="75" rx="0" fill="#F8FAFC" stroke="#D7DDE5" /><line x1="288" y1="250" x2="288" y2="325" stroke="#D7DDE5"/><line x1="496" y1="250" x2="496" y2="325" stroke="#D7DDE5"/><line x1="704" y1="250" x2="704" y2="325" stroke="#D7DDE5"/><line x1="912" y1="250" x2="912" y2="325" stroke="#D7DDE5"/><rect x="80" y="325" width="1040" height="75" rx="0" fill="#EEF3F8" stroke="#D7DDE5" /><line x1="288" y1="325" x2="288" y2="400" stroke="#D7DDE5"/><line x1="496" y1="325" x2="496" y2="400" stroke="#D7DDE5"/><line x1="704" y1="325" x2="704" y2="400" stroke="#D7DDE5"/><line x1="912" y1="325" x2="912" y2="400" stroke="#D7DDE5"/><rect x="80" y="400" width="1040" height="75" rx="0" fill="#F8FAFC" stroke="#D7DDE5" /><line x1="288" y1="400" x2="288" y2="475" stroke="#D7DDE5"/><line x1="496" y1="400" x2="496" y2="475" stroke="#D7DDE5"/><line x1="704" y1="400" x2="704" y2="475" stroke="#D7DDE5"/><line x1="912" y1="400" x2="912" y2="475" stroke="#D7DDE5"/><rect x="80" y="475" width="1040" height="75" rx="0" fill="#EEF3F8" stroke="#D7DDE5" /><line x1="288" y1="475" x2="288" y2="550" stroke="#D7DDE5"/><line x1="496" y1="475" x2="496" y2="550" stroke="#D7DDE5"/><line x1="704" y1="475" x2="704" y2="550" stroke="#D7DDE5"/><line x1="912" y1="475" x2="912" y2="550" stroke="#D7DDE5"/><text x="100" y="580" class="subtitle" text-anchor="start">Examples: customer complaints, on-time delivery, audit finding closure, supplier quality, rework rate.</text>
</svg>