<svg xmlns="http://www.w3.org/2000/svg" width="1200" height="675" viewBox="0 0 1200 675" role="img">
  <defs>
    <style><![CDATA[
      .title{font-family:Inter,Arial,sans-serif;font-size:36px;font-weight:800;fill:#092B45;letter-spacing:.3px}
      .subtitle{font-family:Inter,Arial,sans-serif;font-size:16px;fill:#6B7785}
      .label{font-family:Inter,Arial,sans-serif;font-size:15px;fill:#1A2A3A}
      .small{font-family:Inter,Arial,sans-serif;font-size:12px;fill:#6B7785}
      .head{font-family:Inter,Arial,sans-serif;font-size:17px;font-weight:800;fill:white;letter-spacing:.8px}
      .boxTitle{font-family:Inter,Arial,sans-serif;font-size:18px;font-weight:800;fill:#092B45}
      .boxText{font-family:Inter,Arial,sans-serif;font-size:13px;fill:#1A2A3A}
      .num{font-family:Georgia,serif;font-size:28px;font-weight:700;fill:white}
    ]]></style>
    <filter id="shadow" x="-20%" y="-20%" width="140%" height="140%"><feDropShadow dx="0" dy="2" stdDeviation="3" flood-color="#0B1B2B" flood-opacity="0.16"/></filter>
    <linearGradient id="cover" x1="0" x2="1" y1="0" y2="1"><stop stop-color="#092B45" offset="0"/><stop stop-color="#123C5D" offset="0.6"/><stop stop-color="#0B2F4C" offset="1"/></linearGradient>
    <linearGradient id="grad" x1="0" x2="1" y1="0" y2="1"><stop stop-color="#8E4D9F" offset="0"/><stop stop-color="#0E8C87" offset="1"/></linearGradient>
  </defs>
<rect x="30" y="30" width="1140" height="610" rx="18" fill="white" stroke="#D7DDE5" filter="url(#shadow)"/><text x="70" y="88" class="title" text-anchor="start">Nonconformity and corrective action flow</text><text x="70" y="118" class="subtitle" text-anchor="start">Fix the cause, not only the symptom.</text><rect x="85" y="195" width="220" height="85" rx="12" fill="#F8FAFC" stroke="#D7DDE5" /><circle cx="118" cy="237" r="21" fill="#A73A49"/><text x="118" y="245" class="head" text-anchor="middle">1</text><text x="153" y="242" class="boxTitle" text-anchor="start">Identify NC</text><rect x="355" y="195" width="220" height="85" rx="12" fill="#F8FAFC" stroke="#D7DDE5" /><circle cx="388" cy="237" r="21" fill="#092B45"/><text x="388" y="245" class="head" text-anchor="middle">2</text><text x="423" y="242" class="boxTitle" text-anchor="start">Contain / correct</text><rect x="625" y="195" width="220" height="85" rx="12" fill="#F8FAFC" stroke="#D7DDE5" /><circle cx="658" cy="237" r="21" fill="#A73A49"/><text x="658" y="245" class="head" text-anchor="middle">3</text><text x="693" y="242" class="boxTitle" text-anchor="start">Analyze root cause</text><rect x="895" y="195" width="220" height="85" rx="12" fill="#F8FAFC" stroke="#D7DDE5" /><circle cx="928" cy="237" r="21" fill="#092B45"/><text x="928" y="245" class="head" text-anchor="middle">4</text><text x="963" y="242" class="boxTitle" text-anchor="start">Plan corrective action</text><rect x="85" y="375" width="220" height="85" rx="12" fill="#F8FAFC" stroke="#D7DDE5" /><circle cx="118" cy="417" r="21" fill="#092B45"/><text x="118" y="425" class="head" text-anchor="middle">5</text><text x="153" y="422" class="boxTitle" text-anchor="start">Implement</text><rect x="355" y="375" width="220" height="85" rx="12" fill="#F8FAFC" stroke="#D7DDE5" /><circle cx="388" cy="417" r="21" fill="#092B45"/><text x="388" y="425" class="head" text-anchor="middle">6</text><text x="423" y="422" class="boxTitle" text-anchor="start">Verify effectiveness</text><rect x="625" y="375" width="220" height="85" rx="12" fill="#F8FAFC" stroke="#D7DDE5" /><circle cx="658" cy="417" r="21" fill="#092B45"/><text x="658" y="425" class="head" text-anchor="middle">7</text><text x="693" y="422" class="boxTitle" text-anchor="start">Update risks / lessons</text>
</svg>