<svg xmlns="http://www.w3.org/2000/svg" width="1200" height="675" viewBox="0 0 1200 675" role="img">
  <defs>
    <style><![CDATA[
      .title{font-family:Inter,Arial,sans-serif;font-size:36px;font-weight:800;fill:#092B45;letter-spacing:.3px}
      .subtitle{font-family:Inter,Arial,sans-serif;font-size:16px;fill:#6B7785}
      .label{font-family:Inter,Arial,sans-serif;font-size:15px;fill:#1A2A3A}
      .small{font-family:Inter,Arial,sans-serif;font-size:12px;fill:#6B7785}
      .head{font-family:Inter,Arial,sans-serif;font-size:17px;font-weight:800;fill:white;letter-spacing:.8px}
      .boxTitle{font-family:Inter,Arial,sans-serif;font-size:18px;font-weight:800;fill:#092B45}
      .boxText{font-family:Inter,Arial,sans-serif;font-size:13px;fill:#1A2A3A}
      .num{font-family:Georgia,serif;font-size:28px;font-weight:700;fill:white}
    ]]></style>
    <filter id="shadow" x="-20%" y="-20%" width="140%" height="140%"><feDropShadow dx="0" dy="2" stdDeviation="3" flood-color="#0B1B2B" flood-opacity="0.16"/></filter>
    <linearGradient id="cover" x1="0" x2="1" y1="0" y2="1"><stop stop-color="#092B45" offset="0"/><stop stop-color="#123C5D" offset="0.6"/><stop stop-color="#0B2F4C" offset="1"/></linearGradient>
    <linearGradient id="grad" x1="0" x2="1" y1="0" y2="1"><stop stop-color="#8E4D9F" offset="0"/><stop stop-color="#0E8C87" offset="1"/></linearGradient>
  </defs>
<rect x="30" y="30" width="1140" height="610" rx="18" fill="white" stroke="#D7DDE5" filter="url(#shadow)"/><text x="70" y="88" class="title" text-anchor="start">Management review — inputs and outputs</text><text x="70" y="118" class="subtitle" text-anchor="start">Turn evidence into decisions that improve QMS effectiveness.</text><rect x="80" y="170" width="300" height="42" rx="8" fill="#F8FAFC" stroke="#D7DDE5" /><text x="100" y="197" class="label" text-anchor="start">Audit results</text><path d="M385 191 L500 342" stroke="#C9D1DC"/><rect x="80" y="230" width="300" height="42" rx="8" fill="#F8FAFC" stroke="#D7DDE5" /><text x="100" y="257" class="label" text-anchor="start">Customer feedback</text><path d="M385 251 L500 342" stroke="#C9D1DC"/><rect x="80" y="290" width="300" height="42" rx="8" fill="#F8FAFC" stroke="#D7DDE5" /><text x="100" y="317" class="label" text-anchor="start">Process performance</text><path d="M385 311 L500 342" stroke="#C9D1DC"/><rect x="80" y="350" width="300" height="42" rx="8" fill="#F8FAFC" stroke="#D7DDE5" /><text x="100" y="377" class="label" text-anchor="start">Objectives status</text><path d="M385 371 L500 342" stroke="#C9D1DC"/><rect x="80" y="410" width="300" height="42" rx="8" fill="#F8FAFC" stroke="#D7DDE5" /><text x="100" y="437" class="label" text-anchor="start">Changes</text><path d="M385 431 L500 342" stroke="#C9D1DC"/><rect x="80" y="470" width="300" height="42" rx="8" fill="#F8FAFC" stroke="#D7DDE5" /><text x="100" y="497" class="label" text-anchor="start">Risks &amp; opportunities</text><path d="M385 491 L500 342" stroke="#C9D1DC"/><rect x="500" y="270" width="260" height="150" rx="18" fill="#092B45" stroke="#092B45" /><text x="630" y="335" class="head" text-anchor="middle">Management</text><text x="630" y="365" class="head" text-anchor="middle">review</text><path d="M760 342 L835 251" stroke="#C9D1DC"/><rect x="835" y="230" width="280" height="46" rx="8" fill="#F8FAFC" stroke="#D7DDE5" /><text x="855" y="260" class="label" text-anchor="start">Improvement decisions</text><path d="M760 342 L835 341" stroke="#C9D1DC"/><rect x="835" y="320" width="280" height="46" rx="8" fill="#F8FAFC" stroke="#D7DDE5" /><text x="855" y="350" class="label" text-anchor="start">Resource needs</text><path d="M760 342 L835 431" stroke="#C9D1DC"/><rect x="835" y="410" width="280" height="46" rx="8" fill="#F8FAFC" stroke="#D7DDE5" /><text x="855" y="440" class="label" text-anchor="start">QMS changes</text>
</svg>